<svg width="144" height="144" viewBox="0 0 144 144" fill="none" xmlns="http://www.w3.org/2000/svg">
<rect x="1.5" y="1.5" width="141" height="141" rx="10.5" fill="url(#paint0_linear_2533_1324)"/>
<rect x="1.5" y="1.5" width="141" height="141" rx="10.5" stroke="#050505" stroke-width="3"/>
<rect x="1.5" y="1.5" width="141" height="141" rx="10.5" stroke="#F9F9F9" stroke-width="3"/>
<path d="M25.728 116.096C23.36 116.096 21.76 115.488 20.928 114.272C20.096 113.056 19.68 111.712 19.68 110.24V43.904C19.68 40.832 21.536 39.296 25.248 39.296C29.088 39.296 31.008 40.832 31.008 43.904V106.4H63.072C65.376 106.4 66.528 107.968 66.528 111.104C66.656 114.432 65.504 116.096 63.072 116.096H25.728ZM96.1995 87.776C95.1115 87.776 94.2475 87.36 93.6075 86.528C93.0315 85.632 92.7435 84.448 92.7435 82.976C92.7435 79.712 94.0875 78.08 96.7755 78.08H106.952C109.32 78.08 110.984 77.408 111.944 76.064C112.968 74.72 113.48 73.248 113.48 71.648V55.904C113.48 54.304 112.968 52.832 111.944 51.488C110.984 50.144 109.32 49.472 106.952 49.472H86.7915V112.16C86.7915 115.232 84.8715 116.768 81.0315 116.768C77.3195 116.768 75.4635 115.232 75.4635 112.16V45.536C75.4635 43.232 76.0395 41.696 77.1915 40.928C78.3435 40.16 79.7515 39.776 81.4155 39.776H109.448C111.048 39.776 112.744 40.128 114.536 40.832C116.328 41.536 118.056 42.432 119.72 43.52H119.624C121.288 44.736 122.568 46.336 123.464 48.32C124.36 50.24 124.808 52.48 124.808 55.04V72.416C124.808 77.6 123.08 81.472 119.624 84.032C117.96 85.248 116.264 86.176 114.536 86.816C112.808 87.456 111.112 87.776 109.448 87.776H96.1995Z" fill="white"/>
<defs>
<linearGradient id="paint0_linear_2533_1324" x1="72" y1="0" x2="72" y2="144" gradientUnits="userSpaceOnUse">
<stop stop-color="#09062F"/>
<stop offset="1" stop-color="#294259" stop-opacity="0.98"/>
</linearGradient>
</defs>
</svg>
