<svg width="187" height="69" viewBox="0 0 187 69" fill="none" xmlns="http://www.w3.org/2000/svg">
<g clip-path="url(#clip0_2423_2760)">
<path fill-rule="evenodd" clip-rule="evenodd" d="M175.336 5.74387C175.336 2.54746 178.002 0.0351562 181.045 0.0351562C184.242 0.0351562 186.755 2.7008 186.755 5.74387C186.755 8.94028 184.089 11.4526 181.045 11.4526C178.002 11.4526 175.49 8.94028 175.336 5.74387ZM186.059 5.77926C186.059 3.09003 183.888 0.919772 181.199 0.919772C178.509 0.919772 176.339 3.09003 176.339 5.77926C176.339 8.45669 178.509 10.627 181.199 10.627C183.888 10.627 186.059 8.45669 186.059 5.77926ZM178.969 8.65721H179.134V2.41772H181.069C182.178 2.41772 183.428 2.7008 183.428 4.36387C183.428 5.49618 182.862 5.77926 182.449 5.89721L183.546 8.52746H182.296L181.329 6.18028H180.066V8.69259H178.969V8.65721ZM180.066 5.36644H181.329C181.895 5.36644 182.296 5.08336 182.296 4.51721C182.296 3.95105 182.013 3.66798 181.329 3.66798H180.066V5.36644ZM0.0703125 1.60387H6.75868V56.9926H0.0703125V1.60387ZM100.207 48.9485C104.371 52.7111 107.981 54.6454 112.841 54.6454C117.701 54.6454 121.994 52.2982 121.994 47.7218C121.994 43.8413 118.668 41.6121 112.558 39.0998C107.414 36.8705 103.687 35.3372 101.575 32.1762C101.859 33.5562 101.988 34.9598 101.988 36.4695C101.988 48.8187 92.9525 58.8208 81.8524 58.8208C70.7523 58.8208 61.7283 48.8187 61.7283 36.4695C61.7283 28.9798 65.043 22.4572 70.0681 18.2818H56.4555V57.1577H50.4985C50.4985 57.028 50.4985 18.2582 50.4985 18.2582H45.2256V14.248H50.6518C51.3478 6.06234 56.3611 1.48593 63.4151 1.48593C67.992 1.48593 70.5046 1.88695 71.8847 2.58285C71.8847 2.98387 71.8847 8.82234 71.8847 8.82234H71.6016C69.3722 6.74644 67.3078 5.34285 62.2945 5.34285C58.2721 5.34285 55.6062 8.53926 56.5852 14.2126H79.2219C80.1891 14.0828 81.1682 13.9295 82.1355 13.9295C90.204 13.9295 97.1283 19.19 100.325 26.8449C100.325 26.4321 100.325 25.9957 100.325 25.4649C100.325 17.5623 108.099 14.0828 116.002 14.0828C116.285 14.0828 116.568 14.0828 116.851 14.0828C119.647 14.0828 123.658 14.9321 126.17 15.628L128.388 21.0418L130.9 27.2813L137.577 43.9239L138.426 46.5659L139.276 43.9239L147.899 22.6813C149.432 16.8428 155.802 14.3423 162.608 14.3423C166.088 14.3423 168.565 14.7434 171.632 15.8757V22.3039C167.869 19.5085 165.239 17.9987 160.945 17.9987C157.182 17.9987 152.758 19.6618 152.758 25.2172C152.629 29.3808 155.106 30.0767 162.478 33.6741C168.435 36.3162 174.015 39.0998 174.015 45.7521C174.015 56.8393 163.045 58.7854 157.772 58.7854C153.042 58.7854 148.618 57.6885 146.235 55.589V48.229L146.648 48.5121C150.942 52.5223 154.823 54.6218 159.683 54.6218C164.555 54.6218 168.848 52.2628 168.848 47.6864C168.848 43.8059 165.522 41.5767 159.411 39.0762C153.572 36.5639 149.809 34.9008 148.3 30.7372C145.952 36.4341 134.982 63.2085 132.34 68.9172H126.512L127.892 66.2752L129.143 63.928V63.81C130.676 60.8849 132.752 56.3085 134.699 51.8618L123.316 24.368C123.186 24.2382 123.032 23.8018 122.62 22.988C121.77 21.0418 120.956 19.1075 118.456 18.2582C117.193 17.8454 115.66 17.5623 114.162 17.5623C110.387 17.5623 105.692 19.2254 105.692 24.7808C105.562 28.9444 108.323 29.6403 115.695 33.2377C121.652 35.868 127.232 38.6634 127.232 45.3039C127.232 56.4029 116.261 58.349 110.989 58.349C106.813 58.349 102.802 57.3818 100.301 55.8367L100.207 48.9485ZM123.28 24.6628C123.41 25.0639 122.997 24.0967 122.997 24.0967L123.28 24.6628ZM128.352 65.5321C128.152 65.8859 127.999 66.1808 127.857 66.4521L128.352 65.5321ZM129.119 64.0931L128.352 65.5321C128.565 65.1311 128.824 64.6711 129.119 64.0931ZM128.352 21.3603C128.329 21.3052 128.301 21.2423 128.27 21.1716L128.352 21.3603ZM128.553 21.8439L130.794 27.4228L128.565 21.8793C128.557 21.8635 128.553 21.8517 128.553 21.8439ZM128.352 21.3603C128.411 21.5254 128.447 21.6434 128.553 21.8439L128.352 21.3603ZM68.0038 36.8823C68.1336 47.0023 74.3973 55.07 82.0175 54.9403C89.6732 54.8105 95.6302 46.4716 95.5004 36.4695C95.3825 26.3495 89.107 18.2936 81.4867 18.4234C73.8311 18.5413 67.8505 26.727 68.0038 36.8823ZM19.2389 14.6608L19.3687 19.5203V19.8034C19.4984 19.6736 19.4984 19.3905 19.6518 19.2372C22.1525 16.5952 25.1959 13.9649 32.5685 13.9649C39.6579 13.9649 44.105 19.9213 44.3645 23.6839V57.0044H38.4075V26.4793C38.4075 21.7377 34.2317 18.4234 29.242 18.4234C25.078 18.4234 19.6518 22.1859 19.522 26.0664V57.0044H13.4117V14.6608H19.2389Z" fill="white"/>
</g>
<defs>
<clipPath id="clip0_2423_2760">
<rect width="186.85" height="69" fill="white"/>
</clipPath>
</defs>
</svg>
