<svg width="387" height="264" viewBox="0 0 387 264" fill="none" xmlns="http://www.w3.org/2000/svg">
<rect x="45.4062" y="98.082" width="304" height="70" fill="#FFFCFC"/>
<path d="M97.2539 154.594H52.5781V158.516H97.2539V154.594Z" fill="#3A71B7"/>
<path fill-rule="evenodd" clip-rule="evenodd" d="M195.407 141.982L198.497 139.739C200.558 142.915 203.742 145.624 208.143 145.624C212.265 145.624 215.167 143.381 215.167 139.833C215.167 136.658 212.827 135.351 209.36 133.761L205.427 131.894C201.775 130.12 197.559 127.783 197.559 122.647C197.559 117.229 202.431 113.682 208.049 113.682C212.827 113.682 216.76 116.109 218.912 119.566L215.916 121.809C214.044 119.006 211.139 117.42 207.955 117.42C204.771 117.42 201.772 119.009 201.772 122.463C201.772 125.638 204.206 126.757 207.299 128.253L211.139 130.12C216.196 132.548 219.194 135.069 219.194 139.739C219.194 145.53 214.417 149.359 207.955 149.359C202.619 149.456 198.03 146.559 195.407 141.982ZM229.499 133.765H245.701C245.607 129 242.141 126.385 238.116 126.385C233.806 126.479 230.437 129.373 229.499 133.765ZM249.635 137.312H229.405C229.967 142.355 233.806 145.717 238.772 145.717C241.956 145.717 244.484 144.316 246.639 142.261L248.979 144.97C246.451 147.679 242.891 149.452 238.772 149.452C231.093 149.452 225.192 143.662 225.192 136.095C225.192 128.622 230.905 122.738 238.305 122.738C244.861 122.738 250.012 127.502 250.012 134.224C249.917 135.632 249.729 136.846 249.635 137.312ZM278.203 132.829V148.892H274.175V133.295C274.175 129.279 271.741 126.476 267.807 126.476C263.874 126.476 261.063 129.279 261.063 133.295V148.892H257.035V123.395H260.78V126.104C262.653 124.048 265.37 122.835 268.648 122.835C274.737 122.741 278.203 126.945 278.203 132.829ZM284.382 144.504L286.911 141.795C288.972 144.038 291.127 145.717 294.311 145.717C297.027 145.717 299.182 144.41 299.182 142.076C299.182 139.833 297.31 138.995 294.687 137.966L292.253 136.94C288.319 135.351 285.885 133.483 285.885 129.842C285.885 125.265 289.819 122.744 294.502 122.744C298.154 122.744 301.058 124.333 303.025 126.761L300.591 129.282C298.907 127.508 296.657 126.479 294.317 126.479C291.883 126.479 290.101 127.599 290.101 129.654C290.101 131.428 291.412 132.176 294.223 133.389L296.563 134.415C301.153 136.377 303.308 138.338 303.308 141.979C303.308 146.928 299.092 149.452 294.317 149.452C289.816 149.456 286.443 147.213 284.382 144.504ZM313.135 133.765H329.337C329.243 129 325.777 126.385 321.752 126.385C317.445 126.479 314.073 129.373 313.135 133.765ZM333.274 137.312H313.044C313.606 142.355 317.445 145.717 322.411 145.717C325.595 145.717 328.124 144.316 330.279 142.261L332.619 144.97C330.09 147.679 326.53 149.452 322.411 149.452C314.732 149.452 308.832 143.662 308.832 136.095C308.832 128.622 314.544 122.738 321.944 122.738C328.5 122.738 333.651 127.502 333.651 134.224C333.553 135.632 333.365 136.846 333.274 137.312ZM68.1246 113.682L52.5781 148.892H60.1631L62.1299 144.41H76.3652L78.332 148.892H85.917L70.4647 113.682H68.1246ZM69.2508 126.851L73.8401 138.526H64.5674L69.2508 126.851ZM124.601 135.911C124.601 131.522 121.606 128.719 117.857 128.719C114.579 128.719 111.301 130.868 111.301 135.817C111.301 140.765 114.579 143.008 117.857 143.008C121.512 143.102 124.601 140.303 124.601 135.911ZM119.168 149.546C115.984 149.546 113.268 148.426 111.395 146.371V158.512H104.277V122.929H110.833V126.198C112.612 123.77 115.611 122.369 119.168 122.369C126.568 122.369 131.813 128.065 131.813 135.911C131.813 143.756 126.568 149.546 119.168 149.546ZM182.857 139.179V138.898H177.329C174.989 138.898 173.678 139.833 173.678 141.513C173.678 143.287 175.178 144.316 177.424 144.316C180.328 144.316 182.857 142.264 182.857 139.179ZM189.88 133.483V148.892H183.324V146.371C181.451 148.333 178.735 149.546 175.363 149.546C169.65 149.546 166.372 146.183 166.372 141.795C166.372 137.03 170.212 134.231 176.206 134.231H182.763V133.111C182.763 130.308 181.169 128.534 177.891 128.534C175.08 128.534 173.113 129.842 170.962 132.085L167.31 127.696C170.4 124.055 174.055 122.372 178.644 122.372C185.385 122.369 189.88 126.104 189.88 133.483ZM90.1363 148.892H97.2539V113.682H90.1363V148.892ZM151.576 122.369C148.671 122.369 146.142 123.395 144.458 125.172V113.685H137.34V148.896H144.458V133.765C144.458 130.777 146.519 128.722 149.42 128.722C152.322 128.722 154.292 130.683 154.292 133.765V148.896H161.316V132.829C161.316 126.573 157.57 122.369 151.576 122.369Z" fill="black"/>
</svg>
