<svg width="327" height="218" viewBox="0 0 327 218" fill="none" xmlns="http://www.w3.org/2000/svg">
<path fill-rule="evenodd" clip-rule="evenodd" d="M68.3492 74.1876L37.8867 74.1855V81.3319L48.9898 81.3344V104.783H57.2298L57.2273 81.3319L68.3492 81.3331V74.1876Z" fill="#656262"/>
<mask id="mask0_2423_2738" style="mask-type:luminance" maskUnits="userSpaceOnUse" x="16" y="36" width="295" height="149">
<path d="M16.1914 36.8156H310.725V184.256H16.1914V36.8156Z" fill="white"/>
</mask>
<g mask="url(#mask0_2423_2738)">
<path fill-rule="evenodd" clip-rule="evenodd" d="M151.2 126.044C151.2 123.368 149.024 121.217 146.35 121.217H135.63C134.693 121.217 134.225 121.686 133.728 122.431C133.701 122.457 130.532 127.038 130.532 127.038H140.866C141.454 127.064 142.009 127.317 142.415 127.744C142.821 128.171 143.046 128.738 143.043 129.328V143.648H151.2V126.044ZM122.375 113.05H130.532V143.648H122.375V113.05ZM193.253 121.217H170.078V143.647H178.289V127.038H187.603C188.871 127.038 189.92 128.059 189.92 129.328V143.647H198.104V126.044C198.104 123.368 195.926 121.217 193.253 121.217ZM77.07 113.05H37.8828V143.648H46.0121V120.196H54.7203C55.5471 120.196 56.2083 120.886 56.2083 121.714V143.648H64.3657V121.714C64.3651 121.515 64.4038 121.317 64.4797 121.133C64.5557 120.948 64.6673 120.781 64.8081 120.639C64.949 120.498 65.1163 120.387 65.3005 120.311C65.4847 120.234 65.6821 120.196 65.8814 120.196H72.3023C73.5423 120.196 74.5619 121.189 74.5619 122.431V143.648H82.6917V118.678C82.6932 117.939 82.5488 117.206 82.2668 116.523C81.9847 115.839 81.5707 115.218 81.0483 114.695C80.5259 114.172 79.9055 113.758 79.2227 113.476C78.54 113.193 77.8082 113.049 77.0695 113.05M156.575 128.5V143.648H164.732V121.466C164.732 121.466 160.956 123.811 158.283 125.494C157.263 126.155 156.575 127.26 156.575 128.501M156.575 113.023H164.732V118.678L156.575 124.085V113.023ZM241.728 121.217C239.688 121.217 238.365 122.789 238.365 124.473V143.647H246.577V129.355C246.577 128.086 247.487 127.01 248.782 127.01H254.872C255.754 126.956 256.499 126.432 256.967 125.741C256.994 125.713 260.163 121.217 260.163 121.217H241.728ZM224.808 113.05V138.048H212.985C212.158 138.048 211.579 137.329 211.579 136.723V129.328H211.607C211.606 129.027 211.665 128.729 211.78 128.451C211.894 128.173 212.063 127.92 212.275 127.707C212.488 127.495 212.74 127.326 213.018 127.211C213.296 127.097 213.594 127.038 213.895 127.039H219.874C220.756 127.039 221.665 126.515 222.051 125.908L224.807 121.217H208.219C205.571 121.217 203.395 123.368 203.395 126.045V139.619C203.395 142.213 205.461 143.648 207.363 143.648H232.992V113.05H224.808ZM284.111 121.217H265.261C264.325 121.217 263.472 121.657 262.948 122.376L259.778 127.038H278.765C279.95 127.093 280.915 128.114 280.915 129.328L280.886 138.239H266.668V135.673C266.668 135.178 267.08 134.763 267.577 134.763H277.526V131.453C277.526 130.653 277.03 130.21 276.34 130.21H262.561C260.853 130.21 259.503 131.562 259.503 133.246V141.385C259.503 141.439 259.503 141.468 259.53 141.523C259.723 142.736 260.771 143.647 262.038 143.647H288.935V126.044C288.936 125.409 288.812 124.781 288.571 124.194C288.329 123.608 287.974 123.075 287.525 122.626C287.077 122.177 286.545 121.822 285.959 121.58C285.373 121.338 284.745 121.214 284.112 121.216M112.482 121.217H93.6319C92.7228 121.217 91.8412 121.657 91.3452 122.376L88.1478 127.038H107.135C108.321 127.093 109.285 128.114 109.285 129.328V138.239H95.0376V135.673C95.0376 135.178 95.4508 134.763 95.9468 134.763H105.895V131.453C105.895 130.653 105.399 130.21 104.71 130.21H90.931C89.2231 130.21 87.8732 131.562 87.8732 133.246V141.385C87.8732 141.439 87.8732 141.468 87.9003 141.523C87.9965 142.119 88.3022 142.66 88.762 143.049C89.2219 143.439 89.8056 143.651 90.4079 143.647H117.305V126.044C117.306 125.409 117.182 124.781 116.941 124.194C116.699 123.608 116.344 123.075 115.895 122.626C115.447 122.177 114.915 121.822 114.329 121.58C113.743 121.338 113.115 121.215 112.482 121.217Z" fill="#E51635"/>
<path fill-rule="evenodd" clip-rule="evenodd" d="M164.732 87.5628C164.732 84.8868 162.554 82.7351 159.882 82.7351H148.881C147.943 82.7351 147.474 83.2036 146.978 83.9484C146.951 83.9756 143.781 88.5559 143.781 88.5559H154.397C154.985 88.5823 155.54 88.8353 155.946 89.2622C156.352 89.689 156.577 90.2566 156.574 90.8459V105.166H164.732V87.6186V87.5628ZM135.625 74.5681H143.781V105.166H135.625V74.5681ZM112.986 97.0542H113.013C113.013 97.356 113.073 97.6547 113.189 97.9333C113.304 98.2119 113.474 98.4649 113.688 98.6776C113.901 98.8904 114.155 99.0589 114.434 99.1732C114.712 99.2876 115.011 99.3457 115.312 99.3442L130.554 99.3431V105.166H109.607C106.948 105.166 104.76 103.013 104.76 100.337V83.7365V87.1803C104.76 84.5044 106.948 82.3517 109.607 82.3517H130.504L129.218 85.5519C128.946 86.2266 128.805 86.8 128.187 87.2356C127.745 87.5474 127.371 87.7645 126.802 87.7645H115.312C115.011 87.7631 114.712 87.8213 114.434 87.9357C114.155 88.0502 113.901 88.2187 113.688 88.4315C113.474 88.6443 113.305 88.8973 113.189 89.1759C113.074 89.4545 113.014 89.7532 113.014 90.0549H112.986V97.0542M76.3845 104.884H93.8366C94.7452 104.884 95.6268 104.443 96.1233 103.726L99.3202 99.0626H81.7311C80.5468 99.0078 79.5814 97.9865 79.5814 96.7727V87.8612H92.4314V90.4271C92.4314 90.9237 92.0177 91.3373 91.5212 91.3373H82.9721V94.6486C82.9721 95.4483 83.4681 95.8896 84.1569 95.8896H96.537C98.2454 95.8896 99.5958 94.5385 99.5958 92.8553V84.7153C99.5958 84.6606 99.5958 84.6334 99.5682 84.5781C99.4724 83.9827 99.167 83.4412 98.7072 83.0516C98.2474 82.6619 97.6635 82.4498 97.0611 82.4536H71.5625V100.056C71.5609 100.691 71.6845 101.319 71.9263 101.906C72.168 102.492 72.5231 103.025 72.9712 103.474C73.4192 103.923 73.9514 104.278 74.5372 104.52C75.123 104.763 75.7507 104.886 76.3845 104.885" fill="#656262"/>
</g>
</svg>
