<svg width="247" height="53" viewBox="0 0 247 53" fill="none" xmlns="http://www.w3.org/2000/svg">
<g clip-path="url(#clip0_2423_2727)">
<path d="M106.265 31.6737L103.613 39.8451C103.578 39.9776 103.499 40.0942 103.388 40.1751C103.278 40.256 103.142 40.2964 103.005 40.2894H96.5675C96.1824 40.2894 96.0685 40.0673 96.1282 39.7476L107.187 7.85866C107.555 6.77344 107.739 5.63413 107.729 4.48824C107.725 4.39399 107.757 4.30154 107.818 4.22996C107.88 4.15837 107.966 4.11312 108.06 4.10352H116.906C117.183 4.10352 117.291 4.15771 117.351 4.43406L129.902 39.7909C130.01 40.0673 129.956 40.2894 129.625 40.2894H122.449C122.318 40.312 122.182 40.2851 122.069 40.2142C121.956 40.1432 121.873 40.033 121.837 39.9047L119.016 31.6737H106.265ZM116.993 24.7649C115.908 21.1182 113.674 14.4369 112.627 10.5138H112.573C111.683 14.2148 109.693 20.2674 108.234 24.7649H116.993Z" fill="#FA0F00"/>
<path d="M130.785 26.806C130.785 18.9056 136.702 12.2785 146.823 12.2785C147.262 12.2785 147.816 12.3327 148.645 12.3869V1.50621C148.639 1.45422 148.645 1.40153 148.662 1.35209C148.679 1.30264 148.708 1.25773 148.745 1.22071C148.782 1.1837 148.827 1.15555 148.876 1.13836C148.926 1.12118 148.978 1.11541 149.03 1.12149H156C156.277 1.12149 156.331 1.22986 156.331 1.45203V34.0996C156.316 35.4468 156.391 36.7935 156.553 38.1311C156.553 38.4074 156.499 38.5212 156.168 38.6296C152.722 40.0927 149.016 40.8447 145.272 40.8404C137.087 40.8404 130.785 36.202 130.785 26.806ZM148.645 18.9652C147.986 18.7498 147.293 18.6562 146.601 18.6888C142.343 18.6888 138.693 21.2844 138.693 26.4213C138.693 31.8887 141.844 34.2675 146.047 34.2675C146.926 34.3044 147.804 34.1927 148.645 33.937V18.9652Z" fill="#FA0F00"/>
<path d="M188.002 26.422C188.002 35.0919 182.361 40.8411 174.399 40.8411C164.94 40.8411 160.742 33.7156 160.742 26.59C160.742 18.7438 165.992 12.2793 174.508 12.2793C183.413 12.2793 188.002 18.9659 188.002 26.422ZM168.536 26.4762C168.536 31.353 170.803 34.4308 174.502 34.4308C177.713 34.4308 180.143 31.6727 180.143 26.59C180.143 22.2551 178.375 18.6896 174.177 18.6896C170.971 18.6896 168.536 21.5615 168.536 26.4762Z" fill="#FA0F00"/>
<path d="M199.622 1.12109C200.061 1.12109 200.164 1.17528 200.164 1.56001V12.885C201.679 12.4801 203.24 12.276 204.807 12.2781C212.943 12.2781 218.079 18.0219 218.079 25.4239C218.079 35.7573 209.894 40.84 201.493 40.84C198.552 40.8606 195.626 40.4312 192.815 39.5666C192.718 39.5129 192.636 39.4346 192.578 39.3396C192.52 39.2445 192.488 39.136 192.484 39.0247V1.50582C192.484 1.22947 192.593 1.12109 192.869 1.12109H199.622ZM203.419 18.7968C202.318 18.7831 201.221 18.9328 200.164 19.2411V34.24C200.835 34.3924 201.521 34.4652 202.209 34.4568C206.412 34.4568 210.225 31.9154 210.225 26.1716C210.236 21.116 207.307 18.7968 203.435 18.7968H203.419Z" fill="#FA0F00"/>
<path d="M228.899 28.5765C229.175 31.7248 231.388 34.3203 236.807 34.3203C239.137 34.3652 241.452 33.9318 243.608 33.0469C243.776 32.9386 243.939 32.9928 243.939 33.3233V38.574C243.939 38.9587 243.83 39.1159 243.554 39.2351C241.341 40.2863 238.911 40.8607 235.093 40.8607C224.696 40.8607 221.051 33.7351 221.051 26.8859C221.051 19.2618 225.748 12.2988 234.431 12.2988C242.778 12.2988 246.097 18.7633 246.097 24.2199C246.136 25.4599 246.044 26.7005 245.821 27.9209C245.813 28.0362 245.764 28.1448 245.682 28.2266C245.6 28.3083 245.492 28.3576 245.376 28.3652C243.483 28.5439 241.582 28.6181 239.681 28.5874L228.899 28.5765ZM236.091 23.2175C237.012 23.2512 237.935 23.2131 238.851 23.1037V22.7189C238.835 22.1223 238.701 21.5349 238.455 20.9909C238.209 20.447 237.857 19.9574 237.42 19.5508C236.983 19.1442 236.469 18.8287 235.908 18.6228C235.347 18.4169 234.751 18.3246 234.154 18.3515C230.672 18.3515 229.175 20.9525 228.845 23.2283L236.091 23.2175Z" fill="#FA0F00"/>
<path d="M72.384 53L45.6289 -11H72.384V53Z" fill="#FA0F00"/>
<path d="M0 53L26.7768 -11H0V53Z" fill="#FA0F00"/>
<path d="M36.2028 12.5879L53.2495 53.0004H42.0767L36.9784 40.131H24.5039L36.2028 12.5879Z" fill="#FA0F00"/>
</g>
<defs>
<clipPath id="clip0_2423_2727">
<rect width="246.109" height="64" fill="white" transform="translate(0 -11)"/>
</clipPath>
</defs>
</svg>
