<svg width="197" height="147" viewBox="0 0 197 147" fill="none" xmlns="http://www.w3.org/2000/svg">
<g clip-path="url(#clip0_2423_2746)">
<path fill-rule="evenodd" clip-rule="evenodd" d="M85.0469 55.6125V57.7032V102.989C101.004 93.1946 111.659 75.62 111.659 55.6125C111.659 41.8899 106.65 29.3329 98.353 19.627C90.0685 29.3329 85.0469 41.8899 85.0469 55.6125Z" fill="#470A68"/>
<path fill-rule="evenodd" clip-rule="evenodd" d="M0.125 0.0136719V111.214H55.8857C66.5663 111.214 76.5586 108.198 85.047 102.991V57.7046V55.6139C85.047 71.6427 71.9703 84.6811 55.8857 84.6811H26.7372V26.5467H55.8857C71.9703 26.5467 85.047 39.5851 85.047 55.6139C85.047 41.8912 90.0687 29.3343 98.3531 19.6283C88.1186 7.6416 72.888 0.0136719 55.8857 0.0136719H0.125Z" fill="#004B87"/>
<path fill-rule="evenodd" clip-rule="evenodd" d="M140.335 0.011796C123.536 0.151177 108.497 7.74109 98.3516 19.6265C106.649 29.3324 111.658 41.8894 111.658 55.612C111.658 39.2918 125.219 26.0633 141.698 26.5575C157.566 27.0263 169.98 40.4069 169.98 56.2329V111.212H196.592V56.5117C196.592 25.6705 171.28 -0.254295 140.335 0.011796Z" fill="#A6192E"/>
<path fill-rule="evenodd" clip-rule="evenodd" d="M85.0469 102.988V111.212H111.659V55.6113C111.659 75.6188 101.004 93.1934 85.0469 102.988Z" fill="#AA182C"/>
<path fill-rule="evenodd" clip-rule="evenodd" d="M126.84 128.063C126.84 128.95 126.113 129.66 125.234 129.66C124.342 129.66 123.628 128.95 123.628 128.063C123.628 127.176 124.342 126.454 125.234 126.454C126.113 126.454 126.84 127.176 126.84 128.063ZM22.9911 128.063C22.9911 128.95 22.2646 129.66 21.3852 129.66C20.493 129.66 19.7793 128.95 19.7793 128.063C19.7793 127.176 20.493 126.454 21.3852 126.454C22.2646 126.454 22.9911 127.176 22.9911 128.063ZM74.6479 125.402H77.2479V146.474H74.6479V125.402ZM155.058 125.402H157.658V146.474H155.058V143.965C153.605 145.866 151.821 146.778 149.654 146.778C146.149 146.778 142.427 144.054 142.427 138.998V138.935C142.427 133.854 146.149 131.117 149.654 131.117C151.821 131.117 153.643 132.016 155.058 133.803V125.402ZM155.147 138.909C155.147 135.514 152.56 133.486 150.049 133.486C147.13 133.486 145.091 135.716 145.091 138.909V138.973C145.091 142.128 147.169 144.421 150.049 144.421C153.197 144.421 155.147 141.596 155.147 138.973V138.909ZM117.612 126.251H120.225V146.474H118.122L118.058 146.398L105.606 130.623V146.474H102.993V126.251H105.402L117.612 141.735V126.251ZM91.5864 125.402H94.1992V146.474H91.5864V143.965C90.1334 145.866 88.3618 146.778 86.1824 146.778C82.6774 146.778 78.9558 144.054 78.9558 138.998V138.935C78.9558 133.854 82.6774 131.117 86.1824 131.117C88.3491 131.117 90.1716 132.016 91.5864 133.803V125.402ZM91.6756 138.909C91.6756 135.514 89.0883 133.486 86.5775 133.486C83.6588 133.486 81.6195 135.716 81.6195 138.909V138.973C81.6195 142.128 83.697 144.421 86.5775 144.421C89.7256 144.421 91.6756 141.596 91.6756 138.973V138.909ZM123.807 131.434H126.407V146.474H123.807V131.434ZM73.3223 138.909V138.973C73.3223 143.37 69.8556 146.816 65.4202 146.816C61.0486 146.816 57.6074 143.395 57.6074 139.023V138.973C57.6074 134.563 61.0614 131.117 65.484 131.117C69.8811 131.117 73.3223 134.551 73.3223 138.909ZM70.6713 138.973C70.6713 135.881 68.3644 133.461 65.4202 133.461C62.4888 133.461 60.2711 135.805 60.2711 138.909V138.973C60.2711 142.039 62.5526 144.447 65.484 144.447C68.4409 144.447 70.6713 142.115 70.6713 139.023V138.973ZM137.202 138.783L143.154 146.487H140.108L135.672 140.645L131.199 146.487H128.229L134.156 138.833L128.459 131.434H131.479L135.723 136.971L139.968 131.434H142.937L137.202 138.783ZM191.777 130.521V131.497H196.429V133.778H191.803V146.487H189.203V133.778H187.189V131.472H189.203V130.407C189.203 128.722 189.662 127.366 190.541 126.492C191.318 125.719 192.465 125.301 193.842 125.301C194.849 125.301 195.563 125.415 196.315 125.681L196.455 125.732V128.05L196.187 127.974C195.359 127.734 194.798 127.607 194.122 127.607C192.516 127.607 191.777 128.532 191.777 130.521ZM20.0597 132.016H22.6597V146.499H20.0597V132.016ZM17.995 136.325V136.375C17.995 142.229 13.4704 146.487 7.22516 146.487H0.113281V126.264H7.22516C13.4704 126.264 17.995 130.496 17.995 136.325ZM15.2547 136.375C15.2547 131.877 11.9537 128.747 7.22516 128.747H2.77705V144.003H7.22516C11.9537 144.003 15.2547 140.886 15.2547 136.439V136.375ZM174.915 138.922V138.973C174.915 143.37 171.436 146.816 167.013 146.816C162.629 146.816 159.2 143.395 159.2 139.036V138.973C159.2 134.576 162.654 131.129 167.064 131.129C171.461 131.129 174.915 134.551 174.915 138.922ZM172.251 138.973C172.251 135.881 169.945 133.461 167.013 133.461C164.069 133.461 161.851 135.805 161.851 138.922V138.973C161.851 142.052 164.145 144.459 167.064 144.459C170.021 144.459 172.251 142.128 172.251 139.036V138.973ZM56.2181 138.909V138.973C56.2181 144.041 52.4965 146.791 48.9915 146.791C46.8248 146.791 45.0023 145.878 43.5875 144.092V146.474H40.9875V125.402H43.5875V133.942C45.0405 132.042 46.8248 131.117 48.9915 131.117C52.4965 131.117 56.2181 133.854 56.2181 138.909ZM53.5544 138.935C53.5544 135.78 51.4769 133.486 48.5964 133.486C45.4483 133.486 43.4983 136.299 43.4983 138.909V138.973C43.4983 142.381 46.0856 144.421 48.5964 144.421C51.5151 144.421 53.5544 142.191 53.5544 138.998V138.935ZM184.946 131.167H185.137V133.93H184.767C181.352 133.93 179.147 136.477 179.147 140.43V146.461H176.547V131.421H179.147V134.576C180.434 132.32 182.55 131.066 184.946 131.167ZM39.1522 139.074C39.1522 139.277 39.1522 139.505 39.1267 139.86L39.1139 140.05H27.5157C27.8853 142.723 29.8353 144.497 32.4481 144.497C34.1942 144.497 35.6217 143.864 36.9217 142.495L37.0619 142.356L38.7316 143.838L38.5914 143.99C36.8453 145.942 34.9335 146.803 32.3972 146.803C28.102 146.803 24.8647 143.433 24.8647 138.96C24.8647 134.487 27.9745 131.117 32.104 131.117C36.3227 131.117 39.1522 134.31 39.1522 139.074ZM36.5011 137.87C36.2207 135.653 34.9207 133.36 32.053 133.36C29.7334 133.36 27.8981 135.209 27.5157 137.87H36.5011Z" fill="#004B87"/>
</g>
<defs>
<clipPath id="clip0_2423_2746">
<rect width="196.66" height="146.857" fill="white"/>
</clipPath>
</defs>
</svg>
