<svg width="297" height="59" viewBox="0 0 297 59" fill="none" xmlns="http://www.w3.org/2000/svg">
<path d="M19.5538 24.4671V39.4372C19.5538 40.6761 19.6573 41.502 19.8642 41.915C19.9677 42.1215 20.2781 42.328 20.7954 42.4312C21.3128 42.6377 22.3474 42.8442 23.8994 42.9474C25.4514 43.0506 27.6242 43.1539 30.3143 43.1539V43.7733H1.55078V43.1539C3.82703 43.1539 5.68941 43.0506 7.13794 42.9474C8.58646 42.8442 9.62112 42.6377 10.1384 42.4312C10.6558 42.2247 10.9662 42.0182 11.0696 41.915C11.2766 41.6053 11.38 40.7793 11.38 39.4372V5.26416C11.38 4.02526 11.2766 3.30257 11.0696 2.8896C10.9662 2.68312 10.7592 2.57988 10.2419 2.37339C9.00032 1.85718 5.99981 1.6507 1.55078 1.6507V1.03125H27.4172C32.694 1.03125 36.8326 2.27015 39.9366 4.64471C42.8337 6.91603 44.2822 9.91004 44.2822 13.6267C44.2822 16.1045 43.144 18.4791 40.9713 20.5439C38.1777 23.125 34.4529 24.3639 29.797 24.3639H19.5538V24.4671ZM19.5538 23.8477H26.2791C30.0039 23.8477 32.5905 22.9185 34.0391 20.9569C35.2806 19.305 35.9014 16.724 35.9014 13.1105C35.9014 9.29059 35.0737 6.50306 33.4183 4.54147C31.7628 2.57988 29.2796 1.6507 25.7618 1.6507H22.5543C21.6232 1.6507 20.8989 1.75394 20.485 1.85718C20.0712 1.96043 19.7608 2.27015 19.6573 2.68312C19.6573 3.09609 19.5538 3.92202 19.5538 5.26416V23.8477Z" fill="#ED2B2F"/>
<path d="M51.8346 30.1464C51.8346 34.8955 52.3519 38.4057 53.49 40.4706C54.6281 42.6386 56.387 43.6711 58.6633 43.6711C61.1465 43.6711 63.2158 42.8451 65.0782 41.1933C67.3544 39.2317 68.4925 36.4441 68.4925 33.0372H69.0099C69.0099 36.3409 67.9752 39.1284 65.8024 41.1933C63.6297 43.3613 60.8361 44.3937 57.3182 44.3937C54.3177 44.3937 51.6276 43.2581 49.2479 40.9868C46.3509 38.3025 44.9023 34.8955 44.9023 30.5594C44.9023 25.9135 46.3509 22.0935 49.1444 19.2028C51.6276 16.725 54.4212 15.3828 57.5252 15.3828C60.4222 15.3828 62.8019 16.2087 64.6643 17.8606C67.4579 20.3384 68.9064 24.3648 68.9064 30.0431H51.8346V30.1464ZM63.2158 29.4237C63.2158 25.0875 62.8019 21.887 62.0777 19.6157C61.3534 17.3444 60.1118 16.2087 58.3529 16.2087C55.9732 16.2087 54.2143 17.2412 53.2831 19.4092C52.2484 21.5773 51.8346 24.8811 51.8346 29.4237H63.2158Z" fill="#ED2B2F"/>
<path d="M83.1875 27.5653V40.677C83.1875 41.6062 83.291 42.1224 83.3945 42.4322C83.4979 42.5354 83.7049 42.7419 84.0153 42.8451C84.3257 42.9484 84.9465 43.0516 85.7742 43.1548C86.6019 43.2581 87.4296 43.2581 88.0504 43.2581V43.8775H71.082V43.2581C72.0132 43.2581 73.0479 43.2581 73.9791 43.1548C74.9103 43.0516 75.738 42.8451 76.5657 42.6386C76.8761 42.4322 76.9796 41.8127 76.9796 40.677V20.4417V19.2028C76.9796 18.7898 76.8761 18.4801 76.6692 18.2736L76.2553 17.6541C75.8415 17.3444 74.0825 17.1379 71.1855 17.1379V16.5185L83.1875 15.4861V23.9519C83.4979 22.0935 84.0153 20.3384 84.9465 18.893C86.188 16.8282 87.5331 15.7958 88.8782 15.5893C90.2232 15.4861 91.1544 15.3828 91.5683 15.3828C94.3618 15.3828 96.5346 16.2087 98.1901 17.9639C99.5351 19.4092 100.259 21.0611 100.259 23.0227V40.677C100.259 41.6062 100.363 42.1224 100.466 42.4322C100.57 42.5354 100.777 42.7419 101.087 42.8451C101.398 42.9484 102.122 43.0516 103.053 43.1548C103.984 43.2581 104.915 43.2581 105.743 43.2581V43.8775H88.6712V43.2581C89.3955 43.2581 90.2232 43.2581 91.1544 43.1548C92.0856 43.0516 92.9133 42.8451 93.6376 42.6386C93.948 42.4322 94.0515 41.8127 94.0515 40.677V23.7454C94.0515 21.5773 93.8445 20.0287 93.5341 18.893C92.9133 17.0347 91.8787 16.1055 90.3267 16.1055C88.2574 16.1055 86.6019 17.3444 85.3603 19.9254C84.3257 21.887 83.6014 24.4681 83.1875 27.5653Z" fill="#ED2B2F"/>
<path d="M125.916 29.7338V32.831C125.916 33.8635 125.916 34.7926 126.02 35.7218C126.02 38.8191 125.709 40.9871 124.985 42.1228C124.054 43.6714 122.088 44.4974 119.295 44.4974C116.604 44.4974 114.639 43.8779 113.397 42.5358C112.155 41.2969 111.535 39.4385 111.535 37.064V18.1707H106.258V17.5513C109.879 16.6221 112.673 14.5573 114.535 11.2535C115.984 8.56923 116.811 5.57522 116.811 2.27148H117.949V16.3124H125.606V18.274H117.949V36.3413C117.949 38.7158 118.053 40.2645 118.26 40.9871C118.674 42.639 119.708 43.4649 121.157 43.4649C122.916 43.4649 124.157 42.5358 124.675 40.5742C125.089 39.232 125.296 36.7542 125.296 33.0375V29.837H125.916V29.7338Z" fill="#ED2B2F"/>
<path d="M144.746 24.5716V20.6484C144.746 18.8933 144.436 17.6544 143.918 17.035C143.401 16.4155 142.159 16.1058 140.297 16.1058C138.745 16.1058 137.4 16.4155 136.262 17.035C135.124 17.6544 134.4 18.3771 133.986 19.4095C134.193 19.4095 134.4 19.3063 134.606 19.3063C135.434 19.3063 136.158 19.616 136.676 20.3387C137.193 20.9581 137.504 21.7841 137.504 22.61C137.504 23.5392 137.193 24.3651 136.469 24.9846C135.848 25.604 135.02 25.9137 134.089 25.9137C133.468 25.9137 132.951 25.7073 132.537 25.5008C131.192 24.6748 130.571 23.6424 130.571 22.3003C130.571 21.6808 130.675 20.9581 130.985 20.1322C131.606 18.3771 133.158 17.1382 135.641 16.3123C137.4 15.6928 139.262 15.4863 141.021 15.4863C144.332 15.4863 146.815 16.1058 148.471 17.3447C150.023 18.4803 150.747 19.8225 150.747 21.4743V36.1347C150.747 38.819 150.851 40.4708 150.954 41.0903C151.264 42.6389 152.092 43.3616 153.334 43.3616C154.472 43.3616 155.3 42.7422 155.714 41.6065C156.127 40.3676 156.334 38.7157 156.334 36.4444V34.5861V32.6245V32.005H157.162V34.8958C157.162 35.825 157.162 36.7541 157.265 37.5801C157.265 40.1611 156.955 41.9162 156.334 42.7422C155.507 43.8778 153.851 44.394 151.471 44.394C149.506 44.394 148.161 44.0843 147.229 43.3616C146.091 42.5357 145.367 41.1935 145.057 39.3352C144.125 41.5033 142.677 42.9486 140.814 43.6713C139.676 44.0843 138.228 44.2908 136.365 44.2908C134.503 44.2908 132.848 43.8778 131.503 42.9486C129.64 41.7097 128.605 39.9546 128.605 37.4768C128.605 35.1023 129.537 33.0374 131.399 31.3856C133.261 29.8369 135.538 28.9078 138.124 28.7013C140.814 28.4948 142.573 28.0818 143.505 27.6689C144.332 27.3591 144.746 26.2235 144.746 24.5716ZM144.643 36.6509V27.7721C144.125 28.4948 143.298 28.9078 142.263 29.1142C141.228 29.3207 140.194 29.424 139.262 29.5272C138.021 29.8369 136.986 30.5596 136.158 31.6953C135.227 33.0374 134.813 34.8958 134.813 37.2703C134.813 39.8514 135.02 41.6065 135.538 42.5357C136.055 43.4648 136.883 43.8778 137.917 43.8778C139.573 43.8778 141.125 43.1551 142.47 41.813C143.918 40.2644 144.643 38.6125 144.643 36.6509Z" fill="#ED2B2F"/>
<path d="M164.713 32.6222C163.265 31.8995 162.23 30.9703 161.402 29.8347C160.575 28.699 160.161 27.2536 160.161 25.6018C160.161 22.8142 161.402 20.3364 163.989 18.3748C166.369 16.5165 168.955 15.6906 171.749 15.6906C172.577 15.6906 173.508 15.7938 174.439 16.0003C175.37 16.2068 176.198 16.5165 177.026 16.8262V15.2776C177.026 13.2128 177.44 11.8706 178.164 11.1479C178.888 10.5285 180.026 10.2188 181.475 10.2188C182.096 10.2188 182.716 10.4252 183.234 10.9414C183.751 11.3544 183.958 11.9739 183.958 12.6966C183.958 14.2452 183.234 15.0711 181.785 15.0711C180.233 15.0711 179.509 14.3484 179.509 12.903C179.509 12.5933 179.509 12.3868 179.612 12.1803C179.716 11.9739 179.819 11.7674 179.923 11.4577C178.992 11.5609 178.474 11.9739 178.164 12.5933C177.854 13.2128 177.75 14.1419 177.75 15.1744C177.75 16.1035 177.854 16.8262 177.854 17.2392C179.612 18.0651 180.957 19.2008 181.992 20.5429C183.027 21.8851 183.441 23.5369 183.441 25.292C183.441 27.9763 182.199 30.2477 179.612 31.8995C177.336 33.4481 174.75 34.2741 171.853 34.2741C169.783 34.2741 167.921 33.9644 166.058 33.2417C164.506 33.2417 163.265 33.4481 162.334 33.9644C161.092 34.5838 160.471 35.7195 160.471 37.2681C160.471 37.8875 160.989 38.4038 162.127 38.8167C163.161 39.2297 165.231 39.4362 168.335 39.4362H172.163C176.095 39.4362 179.095 39.9524 181.164 40.9848C183.751 42.3269 184.993 44.495 184.993 47.5923C184.993 50.896 183.855 53.3738 181.475 55.1289C179.095 56.884 176.095 57.8132 172.37 57.8132C167.921 57.8132 164.299 57.0905 161.609 55.5419C158.919 54.0965 157.574 52.3414 157.574 50.483C157.574 49.2441 158.298 48.2117 159.747 47.3858C160.782 46.7663 162.334 46.2501 164.506 45.6307C162.541 44.908 161.092 44.1853 160.161 43.3594C158.919 42.2237 158.195 40.7783 158.195 39.0232C158.195 37.1649 158.712 35.6162 159.85 34.4806C161.092 33.1384 162.644 32.6222 164.713 32.6222ZM172.68 57.1938C175.681 57.1938 177.957 56.5743 179.612 55.3354C181.268 54.0965 182.096 52.5479 182.096 50.7928C182.096 48.6247 181.371 47.1793 180.026 46.4566C178.681 45.7339 176.198 45.3209 172.577 45.3209C168.438 45.3209 165.541 45.8372 163.989 46.7663C162.748 47.5923 162.023 48.9344 162.023 50.896C162.023 52.7544 162.541 54.1997 163.575 55.1289C165.334 56.4711 168.335 57.1938 172.68 57.1938ZM177.44 24.9823C177.44 22.1948 177.026 20.0267 176.302 18.6846C175.474 17.0327 173.922 16.2068 171.749 16.2068C169.783 16.2068 168.335 17.0327 167.403 18.5813C166.472 20.13 166.058 22.298 166.058 24.9823C166.058 28.0796 166.472 30.3509 167.197 31.693C167.921 33.0352 169.473 33.6546 171.749 33.6546C173.818 33.6546 175.163 32.9319 176.095 31.5898C177.026 30.1444 177.44 27.9763 177.44 24.9823Z" fill="#ED2B2F"/>
<path d="M193.895 19.9257C193.895 18.9965 193.792 18.4803 193.585 18.2739C193.274 17.8609 192.964 17.5512 192.757 17.4479C191.929 17.2414 190.17 17.1382 187.273 17.1382V16.5187L200.103 15.4863V23.9522C200.31 22.0938 200.931 20.4419 201.966 18.7901C203.414 16.622 205.276 15.4863 207.449 15.4863C208.277 15.4863 209.208 15.7961 210.139 16.3123C211.071 16.8285 211.795 17.5512 212.105 18.3771C212.416 19.203 212.623 19.9257 212.623 20.6484C212.623 22.4035 211.898 23.6424 210.45 24.2619C210.139 24.4684 209.622 24.5716 209.001 24.5716C208.07 24.5716 207.346 24.2619 206.725 23.6424C206.104 23.023 205.794 22.0938 205.794 20.8549C205.794 20.029 206.104 19.3063 206.725 18.4803C207.346 17.6544 208.07 17.3447 208.794 17.5512C208.484 16.622 207.76 16.1058 206.415 16.1058C205.173 16.1058 203.828 17.035 202.586 18.8933C200.931 21.2679 200.103 24.3651 200.103 28.1851V40.5741C200.103 41.5033 200.207 42.0195 200.31 42.3292C200.414 42.4324 200.621 42.6389 200.931 42.7422C201.862 43.0519 203.828 43.2584 206.725 43.2584V43.8778H187.273V43.2584C188.515 43.2584 189.757 43.2584 190.791 43.1551C191.826 43.0519 192.757 42.8454 193.481 42.6389C193.792 42.4324 193.895 41.813 193.895 40.6773V19.9257Z" fill="#ED2B2F"/>
<path d="M230.731 24.5716V20.6484C230.731 18.8933 230.42 17.6544 229.903 17.035C229.385 16.4155 228.144 16.1058 226.281 16.1058C224.729 16.1058 223.384 16.4155 222.246 17.035C221.108 17.6544 220.384 18.3771 219.97 19.4095C220.177 19.4095 220.384 19.3063 220.591 19.3063C221.419 19.3063 222.143 19.616 222.66 20.3387C223.178 20.9581 223.488 21.7841 223.488 22.61C223.488 23.5392 223.178 24.3651 222.453 24.9846C221.832 25.604 221.005 25.9137 220.074 25.9137C219.453 25.9137 218.935 25.7073 218.522 25.5008C217.176 24.6748 216.556 23.6424 216.556 22.3003C216.556 21.6808 216.659 20.9581 216.97 20.1322C217.59 18.3771 219.142 17.1382 221.626 16.3123C223.384 15.6928 225.247 15.4863 227.006 15.4863C230.317 15.4863 232.8 16.1058 234.455 17.3447C236.007 18.4803 236.732 19.8225 236.732 21.4743V36.1347C236.732 38.819 236.835 40.4708 236.938 41.0903C237.249 42.6389 238.077 43.3616 239.318 43.3616C240.456 43.3616 241.284 42.7422 241.698 41.6065C242.112 40.3676 242.319 38.7157 242.319 36.4444V34.5861V32.6245V32.005H243.146V34.8958C243.146 35.825 243.146 36.7541 243.25 37.5801C243.25 40.1611 242.939 41.9162 242.319 42.7422C241.491 43.8778 239.836 44.394 237.456 44.394C235.49 44.394 234.145 44.0843 233.214 43.3616C232.076 42.5357 231.351 41.1935 231.041 39.3352C230.11 41.5033 228.661 42.9486 226.799 43.6713C225.661 44.0843 224.212 44.2908 222.35 44.2908C220.487 44.2908 218.832 43.8778 217.487 42.9486C215.625 41.7097 214.59 39.9546 214.59 37.4768C214.59 35.1023 215.521 33.0374 217.383 31.3856C219.246 29.8369 221.522 28.9078 224.109 28.7013C226.799 28.4948 228.558 28.0818 229.489 27.6689C230.317 27.3591 230.731 26.2235 230.731 24.5716ZM230.524 36.6509V27.7721C230.006 28.4948 229.179 28.9078 228.144 29.1142C227.109 29.3207 226.075 29.424 225.143 29.5272C223.902 29.8369 222.867 30.5596 222.039 31.6953C221.108 33.0374 220.694 34.8958 220.694 37.2703C220.694 39.8514 220.901 41.6065 221.419 42.5357C221.936 43.4648 222.764 43.8778 223.798 43.8778C225.454 43.8778 227.006 43.1551 228.351 41.813C229.903 40.2644 230.524 38.6125 230.524 36.6509Z" fill="#ED2B2F"/>
<path d="M272.633 23.5386C272.943 21.4738 273.461 19.9252 274.185 18.6863C275.323 16.8279 276.771 15.6923 278.737 15.4858C279.048 15.4858 279.358 15.4858 279.772 15.3825C280.186 15.3825 280.393 15.2793 280.6 15.2793C283.29 15.2793 285.566 16.1052 287.118 17.8603C288.463 19.3057 289.187 20.9576 289.187 22.9192V40.5735C289.187 41.3995 289.291 42.0189 289.394 42.2254C289.498 42.4319 289.705 42.5351 290.015 42.7416C290.325 42.8449 290.946 42.9481 291.774 43.0513C292.602 43.1546 293.326 43.1546 293.947 43.1546V43.774H278.22V43.1546C279.255 43.1546 280.082 43.1546 280.703 43.0513C281.324 42.9481 281.945 42.7416 282.566 42.4319C282.876 42.2254 282.979 41.6059 282.979 40.5735V23.7451C282.979 21.6803 282.772 20.0284 282.462 18.8928C281.841 17.0344 280.807 16.1052 279.358 16.1052C277.806 16.1052 276.461 16.8279 275.426 18.2733C274.288 19.9252 273.357 22.9192 272.736 27.2553V40.5735C272.736 41.5027 272.84 42.0189 272.943 42.3286C273.047 42.4319 273.254 42.5351 273.564 42.7416C273.874 42.8449 274.392 42.9481 275.219 43.0513C276.047 43.1546 276.771 43.2578 277.496 43.2578V43.8773H261.665V43.2578C263.321 43.2578 264.666 43.1546 265.597 42.7416L266.114 42.5351C266.425 42.3286 266.528 41.7092 266.528 40.5735V23.7451C266.528 21.577 266.321 20.0284 266.011 18.8928C265.39 17.0344 264.356 16.1052 262.804 16.1052C260.838 16.1052 259.286 17.3441 258.148 19.9252C257.423 21.6803 256.803 24.2613 256.389 27.5651V40.6768C256.389 41.6059 256.492 42.1222 256.596 42.4319C256.699 42.5351 256.906 42.7416 257.216 42.8448C257.527 42.9481 258.148 43.0513 258.975 43.1546C259.803 43.2578 260.527 43.2578 261.148 43.2578V43.8773H244.18V43.2578C245.111 43.2578 246.042 43.2578 246.973 43.1546C247.904 43.0513 248.732 42.8448 249.56 42.6384C249.87 42.4319 249.974 41.8124 249.974 40.6768V20.5446V19.3057C249.974 18.8928 249.87 18.583 249.663 18.3765C249.353 17.9636 249.043 17.6539 248.836 17.5506C248.215 17.3441 246.663 17.2409 244.283 17.2409V16.6214L256.285 15.4858V23.9516C256.596 21.7835 257.113 20.1317 257.734 18.8928C258.768 16.8279 260.32 15.6923 262.286 15.4858C262.7 15.4858 263.114 15.3825 263.424 15.3825H264.149C267.046 15.3825 269.115 16.2085 270.667 17.7571C271.909 19.3057 272.633 21.1641 272.633 23.5386Z" fill="#ED2B2F"/>
</svg>
