<svg width="14" height="24" viewBox="0 0 14 24" fill="none" xmlns="http://www.w3.org/2000/svg">
<g clip-path="url(#clip0_2385_1562)">
<path fill-rule="evenodd" clip-rule="evenodd" d="M13.9837 9.3148L13.2876 11.7016C13.2257 11.9136 13.0091 12.0332 12.8034 11.97C12.5977 11.9064 12.4806 11.6832 12.5424 11.472L13.0884 9.6H8.16667C7.952 9.6 7.77778 9.4212 7.77778 9.2V6.4C7.77778 4.4 9.28705 4.4 10.5 4.4H12.4444V0.8H9.33333C5.88778 0.8 4.66667 2.0564 4.66667 5.6V9.2C4.66667 9.4212 4.49244 9.6 4.27778 9.6H0.777778V12.8H4.27778C4.49244 12.8 4.66667 12.9788 4.66667 13.2V23.2H7.77778V13.2C7.77778 12.9788 7.952 12.8 8.16667 12.8H12.4444C12.6591 12.8 12.8333 12.9788 12.8333 13.2C12.8333 13.4212 12.6591 13.6 12.4444 13.6H8.55555V23.6C8.55555 23.8212 8.38133 24 8.16667 24H4.27778C4.06311 24 3.88889 23.8212 3.88889 23.6V13.6H0.388889C0.174222 13.6 0 13.4212 0 13.2V9.2C0 8.9788 0.174222 8.8 0.388889 8.8H3.88889V5.6C3.88889 1.6224 5.46622 0 9.33333 0H12.8333C13.048 0 13.2222 0.1788 13.2222 0.4V4.8C13.2222 5.0212 13.048 5.2 12.8333 5.2H10.5C8.94639 5.2 8.55555 5.3412 8.55555 6.4V8.8H13.6111C13.734 8.8 13.8499 8.8596 13.923 8.9612C13.9965 9.0624 14.0191 9.1936 13.9837 9.3148Z" fill="white"/>
</g>
<defs>
<clipPath id="clip0_2385_1562">
<rect width="14" height="24" fill="white"/>
</clipPath>
</defs>
</svg>
