<svg width="50" height="50" viewBox="0 0 50 50" fill="none" xmlns="http://www.w3.org/2000/svg">
<path d="M38.7841 49.4786C38.1891 49.4786 37.7046 48.9958 37.7046 48.4008V32.0196C37.7046 26.0968 34.665 26.0968 33.5192 26.0968C30.3266 26.0968 28.7099 28.0892 28.7099 32.0196V48.4025C28.7099 48.9975 28.2271 49.4803 27.6321 49.4803H18.3688C17.7738 49.4803 17.291 48.9975 17.291 48.4025V17.1956C17.291 16.6006 17.7738 16.1178 18.3688 16.1178H27.6338C28.2288 16.1178 28.7116 16.6006 28.7116 17.1956V18.3584L29.2692 17.8977C31.4622 16.0838 34.0785 15.1641 37.045 15.1641C40.7119 15.1641 43.7991 16.3354 45.9717 18.5539C48.2667 20.8965 49.4788 24.3849 49.4788 28.64V48.4025C49.4788 48.9975 48.9943 49.4803 48.3993 49.4803L38.7841 49.4786ZM33.5209 23.9378C35.8907 23.9378 39.8653 24.9884 39.8653 32.0196V47.323H47.3198V28.64C47.3198 21.4473 43.5747 17.3231 37.045 17.3231C31.214 17.3231 28.6878 21.7261 28.5824 21.9131C28.392 22.2582 28.0316 22.4724 27.6389 22.4724C27.5505 22.4724 27.4604 22.4588 27.3686 22.4367C26.8892 22.316 26.5543 21.8893 26.5543 21.3997V18.2768H19.4483V47.3247H26.5543V32.0196C26.5543 26.9587 29.1587 23.9378 33.5209 23.9378Z" fill="white"/>
<path d="M2.52481 49.4799C1.92981 49.4799 1.44531 48.9971 1.44531 48.4021V17.1969C1.44531 16.6019 1.92981 16.1191 2.52481 16.1191H12.1893C12.7843 16.1191 13.2671 16.6019 13.2671 17.1969V48.4021C13.2671 48.9971 12.7843 49.4799 12.1893 49.4799H2.52481ZM3.60431 47.3243H11.1098V18.2764H3.60431V47.3243Z" fill="white"/>
<path d="M7.31443 14.1858C3.56763 14.1858 0.519531 11.1207 0.519531 7.35353C0.519531 3.58463 3.56763 0.519531 7.31443 0.519531C11.0561 0.519531 14.1025 3.58633 14.1025 7.35523C14.1025 11.1207 11.0561 14.1858 7.31443 14.1858ZM7.31443 2.67173C4.75763 2.67173 2.67853 4.77123 2.67853 7.35353C2.67853 9.93413 4.75763 12.0302 7.31443 12.0302C9.86953 12.0302 11.9469 9.93413 11.9469 7.35353C11.9452 4.77293 9.86953 2.67173 7.31443 2.67173Z" fill="white"/>
</svg>
