<svg width="32" height="31" viewBox="0 0 32 31" fill="none" xmlns="http://www.w3.org/2000/svg">
<path d="M20.2773 15.0966L14.2773 11.2216C14.202 11.173 14.1145 11.1451 14.0241 11.1408C13.9337 11.1366 13.8438 11.1562 13.7641 11.1976C13.6843 11.2389 13.6176 11.3005 13.571 11.3757C13.5245 11.451 13.5 11.537 13.5 11.6247V19.3747C13.5 19.4623 13.5246 19.5484 13.5711 19.6236C13.6176 19.6988 13.6843 19.7604 13.7641 19.8017C13.8439 19.8431 13.9337 19.8627 14.0241 19.8585C14.1145 19.8542 14.202 19.8263 14.2773 19.7777L20.2773 15.9027C20.3458 15.8584 20.402 15.7985 20.4408 15.7282C20.4797 15.6579 20.5 15.5794 20.5 15.4997C20.5 15.4199 20.4797 15.3414 20.4408 15.2711C20.402 15.2008 20.3458 15.1409 20.2773 15.0966ZM14.5 18.4696V12.5297L19.0986 15.4997L14.5 18.4696ZM28.8075 8.57373C28.709 8.20263 28.5208 7.85954 28.2585 7.57277C27.9962 7.286 27.6673 7.06377 27.2988 6.92441C23.0747 5.35185 16.284 5.37586 16.0032 5.37716C15.7164 5.37556 8.92542 5.35179 4.70117 6.92441C4.33275 7.06377 4.00382 7.286 3.74152 7.57276C3.47921 7.85951 3.29105 8.20259 3.19257 8.57367C2.87659 9.74883 2.5 11.9043 2.5 15.4997C2.5 19.0951 2.87659 21.2505 3.1925 22.4256C3.29099 22.7967 3.47915 23.1398 3.74147 23.4265C4.00378 23.7133 4.33273 23.9355 4.70117 24.0749C8.92529 25.6475 15.716 25.6238 15.9968 25.6222C16.0109 25.6222 16.0406 25.6224 16.0852 25.6224C16.9457 25.6224 23.2824 25.5701 27.2988 24.0749C27.6672 23.9356 27.9962 23.7133 28.2585 23.4266C28.5208 23.1398 28.7089 22.7967 28.8074 22.4257C29.1234 21.2505 29.5 19.095 29.5 15.4997C29.5 11.9042 29.1234 9.74877 28.8075 8.57373ZM27.8397 22.1815C27.7815 22.4036 27.6695 22.6092 27.5131 22.7811C27.3567 22.9531 27.1603 23.0866 26.9401 23.1706C22.8933 24.6771 16.0719 24.6544 15.9968 24.6534C15.9281 24.6534 9.10657 24.6771 5.05982 23.1706C4.83967 23.0866 4.6433 22.9531 4.4869 22.7811C4.33049 22.6091 4.21854 22.4036 4.16028 22.1814C3.85901 21.0611 3.5 18.9925 3.5 15.4997C3.5 12.0069 3.85907 9.93822 4.16028 8.81786C4.21854 8.59571 4.3305 8.39016 4.48692 8.21817C4.64333 8.04618 4.83972 7.91269 5.05988 7.82871C9.10669 6.3222 15.9284 6.3462 16.0032 6.34591C16.0714 6.34514 22.8934 6.32214 26.9402 7.82871C27.1603 7.91272 27.3567 8.04623 27.5131 8.21822C27.6695 8.39022 27.7815 8.59577 27.8397 8.81793C28.141 9.93822 28.5 12.0068 28.5 15.4997C28.5 18.9924 28.1409 21.0611 27.8397 22.1815Z" fill="white"/>
</svg>
